<svg width="40" height="40" viewBox="0 0 40 40" fill="none" xmlns="http://www.w3.org/2000/svg">
<path d="M12.8 0.799999C13.7975 0.799999 14.6 1.6025 14.6 2.6V5.6H25.4V2.6C25.4 1.6025 26.2025 0.799999 27.2 0.799999C28.1975 0.799999 29 1.6025 29 2.6V5.6H32C34.6475 5.6 36.8 7.7525 36.8 10.4V34.4C36.8 37.0475 34.6475 39.2 32 39.2H8.00001C5.35251 39.2 3.20001 37.0475 3.20001 34.4V10.4C3.20001 7.7525 5.35251 5.6 8.00001 5.6H11V2.6C11 1.6025 11.8025 0.799999 12.8 0.799999ZM33.2 15.2H6.80001V34.4C6.80001 35.06 7.34001 35.6 8.00001 35.6H32C32.66 35.6 33.2 35.06 33.2 34.4V15.2ZM27.875 23.075L19.475 31.475C18.77 32.18 17.63 32.18 16.9325 31.475L12.1325 26.675C11.4275 25.97 11.4275 24.83 12.1325 24.1325C12.8375 23.435 13.9775 23.4275 14.675 24.1325L18.2 27.6575L25.325 20.5325C26.03 19.8275 27.17 19.8275 27.8675 20.5325C28.565 21.2375 28.5725 22.3775 27.8675 23.075H27.875Z" fill="white"/>
</svg>
