<svg width="37" height="40" viewBox="0 0 37 40" fill="none" xmlns="http://www.w3.org/2000/svg">
<path fill-rule="evenodd" clip-rule="evenodd" d="M13.32 2.8C13.32 1.8025 12.5777 1 11.655 1C10.7323 1 9.99002 1.8025 9.99002 2.8V5.8H7.21502C4.76609 5.8 2.77502 7.9525 2.77502 10.6V34.6C2.77502 37.2475 4.76609 39.4 7.21502 39.4H29.415C31.864 39.4 33.855 37.2475 33.855 34.6V10.6C33.855 7.9525 31.864 5.8 29.415 5.8H26.64V2.8C26.64 1.8025 25.8977 1 24.975 1C24.0523 1 23.31 1.8025 23.31 2.8V5.8H13.32V2.8ZM6.10502 15.4H30.525V34.6C30.525 35.26 30.0255 35.8 29.415 35.8H7.21502C6.60452 35.8 6.10502 35.26 6.10502 34.6V15.4ZM12.3772 21.2192L16.3369 25.5L12.3772 29.7808C11.9076 30.2884 11.9076 31.1116 12.3772 31.6192C12.8468 32.1269 13.6082 32.1269 14.0778 31.6192L18.0375 27.3385L21.9972 31.6192C22.4668 32.1269 23.2282 32.1269 23.6978 31.6192C24.1674 31.1116 24.1674 30.2884 23.6978 29.7808L19.7381 25.5L23.6978 21.2192C24.1674 20.7116 24.1674 19.8884 23.6978 19.3808C23.2282 18.8731 22.4668 18.8731 21.9972 19.3808L18.0375 23.6615L14.0778 19.3808C13.6082 18.8731 12.8468 18.8731 12.3772 19.3808C11.9076 19.8884 11.9076 20.7116 12.3772 21.2192Z" fill="white"/>
</svg>
