<svg width="40" height="40" viewBox="0 0 40 40" fill="none" xmlns="http://www.w3.org/2000/svg">
<path d="M27.9921 22.5714H34.1193C34.0523 22.6518 33.9854 22.7221 33.9184 22.7824C33.8514 22.8426 33.7912 22.8929 33.7376 22.933L33.6773 23.0134L21.1617 35.067C20.9206 35.308 20.626 35.4286 20.2778 35.4286C19.9296 35.4286 19.6349 35.308 19.3938 35.067L6.85813 22.9732C6.79116 22.9464 6.65054 22.8125 6.43625 22.5714H13.8492C14.1438 22.5714 14.4084 22.481 14.6427 22.3002C14.8771 22.1194 15.0278 21.8884 15.0947 21.6072L16.501 15.9621L20.3179 29.3616C20.3983 29.6295 20.5523 29.8505 20.78 30.0246C21.0077 30.1987 21.2688 30.2857 21.5635 30.2857C21.8447 30.2857 22.0992 30.1987 22.3269 30.0246C22.5546 29.8505 22.7086 29.6295 22.7889 29.3616L25.722 19.6183L26.847 21.8683C27.088 22.3371 27.4697 22.5714 27.9921 22.5714ZM38.2778 13.9732C38.2778 15.9152 37.588 17.9241 36.2086 20H28.7956L26.5657 15.5603C26.4586 15.3326 26.2878 15.1518 26.0534 15.0179C25.8191 14.8839 25.5746 14.8304 25.3202 14.8572C24.7175 14.9241 24.3425 15.2322 24.1952 15.7813L21.6037 24.4197L17.6662 10.6384C17.5858 10.3705 17.4284 10.1496 17.1941 9.97546C16.9597 9.80135 16.6952 9.7143 16.4005 9.7143C16.1059 9.7143 15.8447 9.8047 15.6171 9.9855C15.3894 10.1663 15.2421 10.3973 15.1751 10.6786L12.8447 20H4.34697C2.9675 17.9241 2.27777 15.9152 2.27777 13.9732C2.27777 11.0268 3.12822 8.72323 4.82911 7.06251C6.53 5.4018 8.88045 4.57144 11.8804 4.57144C12.7108 4.57144 13.5579 4.71541 14.4217 5.00336C15.2856 5.29131 16.0892 5.6797 16.8325 6.16854C17.5758 6.65738 18.2153 7.11608 18.751 7.54466C19.2867 7.97323 19.7956 8.42858 20.2778 8.91073C20.7599 8.42858 21.2688 7.97323 21.8046 7.54466C22.3403 7.11608 22.9798 6.65738 23.7231 6.16854C24.4664 5.6797 25.27 5.29131 26.1338 5.00336C26.9976 4.71541 27.8447 4.57144 28.6751 4.57144C31.6751 4.57144 34.0255 5.4018 35.7264 7.06251C37.4273 8.72323 38.2778 11.0268 38.2778 13.9732Z" fill="white"/>
</svg>
