<svg width="40" height="40" viewBox="0 0 40 40" fill="none" xmlns="http://www.w3.org/2000/svg">
<path d="M14.6667 18.6667C12.8986 18.6667 11.2029 17.9643 9.95263 16.714C8.70239 15.4638 8.00001 13.7681 8.00001 12V6.66666C8.00001 6.31304 8.14049 5.9739 8.39053 5.72386C8.64058 5.47381 8.97972 5.33333 9.33334 5.33333H10.6667C11.0203 5.33333 11.3594 5.19286 11.6095 4.94281C11.8595 4.69276 12 4.35362 12 4C12 3.64638 11.8595 3.30724 11.6095 3.05719C11.3594 2.80714 11.0203 2.66666 10.6667 2.66666H9.33334C8.27248 2.66666 7.25506 3.08809 6.50492 3.83824C5.75477 4.58838 5.33334 5.6058 5.33334 6.66666V12C5.33506 13.5063 5.70237 14.9897 6.40374 16.3228C7.10511 17.6558 8.11958 18.7987 9.36001 19.6533C10.553 20.703 11.5203 21.9841 12.2033 23.4189C12.8863 24.8536 13.2708 26.4122 13.3333 28C13.3333 30.4754 14.3167 32.8493 16.067 34.5997C17.8174 36.35 20.1913 37.3333 22.6667 37.3333C25.142 37.3333 27.516 36.35 29.2663 34.5997C31.0167 32.8493 32 30.4754 32 28V26.48C33.2569 26.1555 34.3523 25.3837 35.0808 24.3093C35.8094 23.235 36.1211 21.9317 35.9575 20.644C35.7939 19.3562 35.1663 18.1724 34.1923 17.3142C33.2183 16.4561 31.9648 15.9827 30.6667 15.9827C29.3686 15.9827 28.115 16.4561 27.141 17.3142C26.167 18.1724 25.5394 19.3562 25.3759 20.644C25.2123 21.9317 25.524 23.235 26.2525 24.3093C26.9811 25.3837 28.0765 26.1555 29.3333 26.48V28C29.3333 29.7681 28.631 31.4638 27.3807 32.714C26.1305 33.9643 24.4348 34.6667 22.6667 34.6667C20.8986 34.6667 19.2029 33.9643 17.9526 32.714C16.7024 31.4638 16 29.7681 16 28C16.066 26.4102 16.4546 24.8505 17.1422 23.4156C17.8299 21.9807 18.8022 20.7007 20 19.6533C21.2355 18.7958 22.2448 17.6516 22.9414 16.3187C23.638 14.9858 24.0013 13.5039 24 12V6.66666C24 5.6058 23.5786 4.58838 22.8284 3.83824C22.0783 3.08809 21.0609 2.66666 20 2.66666H18.6667C18.3131 2.66666 17.9739 2.80714 17.7239 3.05719C17.4738 3.30724 17.3333 3.64638 17.3333 4C17.3333 4.35362 17.4738 4.69276 17.7239 4.94281C17.9739 5.19286 18.3131 5.33333 18.6667 5.33333H20C20.3536 5.33333 20.6928 5.47381 20.9428 5.72386C21.1929 5.9739 21.3333 6.31304 21.3333 6.66666V12C21.3333 12.8755 21.1609 13.7424 20.8259 14.5512C20.4908 15.3601 19.9998 16.095 19.3807 16.714C18.7617 17.3331 18.0267 17.8242 17.2179 18.1592C16.4091 18.4942 15.5422 18.6667 14.6667 18.6667ZM30.6667 24C29.9594 24 29.2812 23.719 28.7811 23.2189C28.281 22.7189 28 22.0406 28 21.3333C28 20.6261 28.281 19.9478 28.7811 19.4477C29.2812 18.9476 29.9594 18.6667 30.6667 18.6667C31.3739 18.6667 32.0522 18.9476 32.5523 19.4477C33.0524 19.9478 33.3333 20.6261 33.3333 21.3333C33.3333 22.0406 33.0524 22.7189 32.5523 23.2189C32.0522 23.719 31.3739 24 30.6667 24Z" fill="white"/>
</svg>
