<svg width="40" height="40" viewBox="0 0 40 40" fill="none" xmlns="http://www.w3.org/2000/svg">
<path fill-rule="evenodd" clip-rule="evenodd" d="M8.21487 8.21489C11.3405 5.08928 15.5797 3.33334 20 3.33334C24.4203 3.33334 28.6595 5.08928 31.7851 8.21489C34.9107 11.3405 36.6666 15.5797 36.6666 20C36.6666 22.1887 36.2355 24.356 35.398 26.3781C34.5604 28.4002 33.3327 30.2375 31.7851 31.7851C30.2374 33.3328 28.4001 34.5604 26.378 35.398C24.3559 36.2356 22.1887 36.6667 20 36.6667C17.8113 36.6667 15.644 36.2356 13.6219 35.398C11.5998 34.5604 9.76251 33.3328 8.21487 31.7851C6.66722 30.2375 5.43957 28.4002 4.60199 26.3781C3.76441 24.356 3.33331 22.1887 3.33331 20C3.33331 15.5797 5.08926 11.3405 8.21487 8.21489ZM20 6.66667C16.4638 6.66667 13.0724 8.07143 10.5719 10.5719C8.0714 13.0724 6.66665 16.4638 6.66665 20C6.66665 21.751 7.01152 23.4848 7.68159 25.1024C8.35165 26.7201 9.33377 28.19 10.5719 29.4281C11.81 30.6662 13.2799 31.6483 14.8975 32.3184C16.5152 32.9885 18.249 33.3333 20 33.3333C21.7509 33.3333 23.4848 32.9885 25.1024 32.3184C26.7201 31.6483 28.19 30.6662 29.4281 29.4281C30.6662 28.19 31.6483 26.7201 32.3184 25.1024C32.9884 23.4848 33.3333 21.751 33.3333 20C33.3333 16.4638 31.9286 13.0724 29.4281 10.5719C26.9276 8.07143 23.5362 6.66667 20 6.66667Z" fill="white"/>
<path fill-rule="evenodd" clip-rule="evenodd" d="M20 10C20.9205 10 21.6666 10.7462 21.6666 11.6667V19.3096L26.1785 23.8215C26.8294 24.4724 26.8294 25.5276 26.1785 26.1785C25.5276 26.8294 24.4723 26.8294 23.8215 26.1785L18.8215 21.1785C18.5089 20.866 18.3333 20.442 18.3333 20V11.6667C18.3333 10.7462 19.0795 10 20 10Z" fill="white"/>
</svg>
