<svg width="40" height="40" viewBox="0 0 40 40" fill="none" xmlns="http://www.w3.org/2000/svg">
<path d="M20.0201 5C20.9649 5 21.7307 6.01344 21.7307 7.26358L21.7308 18.2692L32.7364 18.2692C33.9866 18.2692 35 19.0351 35 19.9798V20.0201C35 20.9649 33.9866 21.7307 32.7364 21.7307L21.7308 21.7308L21.7308 32.7364C21.7308 33.9866 20.9649 35 20.0202 35H19.9799C19.0351 35 18.2693 33.9866 18.2693 32.7364L18.2692 21.7308L7.26358 21.7308C6.01344 21.7308 5 20.9649 5 20.0202V19.9799C5 19.0351 6.01344 18.2693 7.26358 18.2693L18.2692 18.2692L18.2692 7.26358C18.2692 6.01344 19.0351 5 19.9798 5H20.0201Z" fill="white"/>
</svg>
