<svg width="40" height="40" viewBox="0 0 40 40" fill="none" xmlns="http://www.w3.org/2000/svg">
<path d="M30.6067 28.94L20 39.5467L9.39334 28.94C7.29557 26.8422 5.86698 24.1695 5.28821 21.2598C4.70945 18.35 5.00651 15.3341 6.14183 12.5932C7.27715 9.85229 9.19974 7.50962 11.6665 5.86141C14.1332 4.2132 17.0333 3.33347 20 3.33347C22.9667 3.33347 25.8668 4.2132 28.3335 5.86141C30.8003 7.50962 32.7229 9.85229 33.8582 12.5932C34.9935 15.3341 35.2906 18.35 34.7118 21.2598C34.133 24.1695 32.7044 26.8422 30.6067 28.94ZM20 25C21.7681 25 23.4638 24.2976 24.7141 23.0474C25.9643 21.7971 26.6667 20.1014 26.6667 18.3333C26.6667 16.5652 25.9643 14.8695 24.7141 13.6193C23.4638 12.369 21.7681 11.6667 20 11.6667C18.2319 11.6667 16.5362 12.369 15.286 13.6193C14.0357 14.8695 13.3333 16.5652 13.3333 18.3333C13.3333 20.1014 14.0357 21.7971 15.286 23.0474C16.5362 24.2976 18.2319 25 20 25ZM20 21.6667C19.116 21.6667 18.2681 21.3155 17.643 20.6904C17.0179 20.0652 16.6667 19.2174 16.6667 18.3333C16.6667 17.4493 17.0179 16.6014 17.643 15.9763C18.2681 15.3512 19.116 15 20 15C20.8841 15 21.7319 15.3512 22.357 15.9763C22.9822 16.6014 23.3333 17.4493 23.3333 18.3333C23.3333 19.2174 22.9822 20.0652 22.357 20.6904C21.7319 21.3155 20.8841 21.6667 20 21.6667Z" fill="white"/>
</svg>
