<svg width="40" height="40" viewBox="0 0 40 40" fill="none" xmlns="http://www.w3.org/2000/svg">
<path fill-rule="evenodd" clip-rule="evenodd" d="M5 7.24757C5 6.00627 6.00627 5 7.24757 5H11.6714C12.9126 5 13.9189 6.00627 13.9189 7.24757V11.6714C13.9189 12.9126 12.9126 13.9189 11.6714 13.9189H7.24757C6.00627 13.9189 5 12.9126 5 11.6714V7.24757ZM6.62166 8.05191C6.62166 7.26199 7.26202 6.62164 8.05193 6.62164H10.8671C11.657 6.62164 12.2973 7.26199 12.2973 8.05191V10.867C12.2973 11.657 11.657 12.2973 10.8671 12.2973H8.05193C7.26202 12.2973 6.62166 11.657 6.62166 10.867V8.05191Z" fill="white"/>
<path fill-rule="evenodd" clip-rule="evenodd" d="M15.5406 7.24757C15.5406 6.00627 16.5468 5 17.7881 5H22.2119C23.4532 5 24.4595 6.00627 24.4595 7.24757V11.6714C24.4595 12.9126 23.4532 13.9189 22.2119 13.9189H17.7881C16.5468 13.9189 15.5406 12.9126 15.5406 11.6714V7.24757ZM17.1622 8.05191C17.1622 7.26199 17.8025 6.62164 18.5925 6.62164H21.4076C22.1975 6.62164 22.8379 7.26199 22.8379 8.05191V10.867C22.8379 11.657 22.1975 12.2973 21.4076 12.2973H18.5925C17.8025 12.2973 17.1622 11.657 17.1622 10.867V8.05191Z" fill="white"/>
<path fill-rule="evenodd" clip-rule="evenodd" d="M26.0811 7.24757C26.0811 6.00627 27.0874 5 28.3287 5H32.7525C33.9938 5 35 6.00627 35 7.24757V11.6714C35 12.9126 33.9938 13.9189 32.7525 13.9189H28.3287C27.0874 13.9189 26.0811 12.9126 26.0811 11.6714V7.24757ZM27.7027 8.05191C27.7027 7.26199 28.3431 6.62164 29.133 6.62164H31.9482C32.7381 6.62164 33.3784 7.26199 33.3784 8.05191V10.867C33.3784 11.657 32.7381 12.2973 31.9482 12.2973H29.133C28.3431 12.2973 27.7027 11.657 27.7027 10.867V8.05191Z" fill="white"/>
<path fill-rule="evenodd" clip-rule="evenodd" d="M5 17.7881C5 16.5468 6.00627 15.5406 7.24757 15.5406H11.6714C12.9126 15.5406 13.9189 16.5468 13.9189 17.7881V22.2119C13.9189 23.4532 12.9126 24.4595 11.6714 24.4595H7.24757C6.00627 24.4595 5 23.4532 5 22.2119V17.7881ZM6.62166 18.5924C6.62166 17.8025 7.26202 17.1621 8.05193 17.1621H10.8671C11.657 17.1621 12.2973 17.8025 12.2973 18.5924V21.4076C12.2973 22.1975 11.657 22.8378 10.8671 22.8378H8.05193C7.26202 22.8378 6.62166 22.1975 6.62166 21.4076V18.5924Z" fill="white"/>
<path fill-rule="evenodd" clip-rule="evenodd" d="M15.5406 17.7881C15.5406 16.5468 16.5468 15.5406 17.7881 15.5406H22.2119C23.4532 15.5406 24.4595 16.5468 24.4595 17.7881V22.2119C24.4595 23.4532 23.4532 24.4595 22.2119 24.4595H17.7881C16.5468 24.4595 15.5406 23.4532 15.5406 22.2119V17.7881ZM17.1622 18.5924C17.1622 17.8025 17.8025 17.1621 18.5925 17.1621H21.4076C22.1975 17.1621 22.8379 17.8025 22.8379 18.5924V21.4076C22.8379 22.1975 22.1975 22.8378 21.4076 22.8378H18.5925C17.8025 22.8378 17.1622 22.1975 17.1622 21.4076V18.5924Z" fill="white"/>
<path fill-rule="evenodd" clip-rule="evenodd" d="M26.0811 17.7881C26.0811 16.5468 27.0874 15.5406 28.3287 15.5406H32.7525C33.9938 15.5406 35 16.5468 35 17.7881V22.2119C35 23.4532 33.9938 24.4595 32.7525 24.4595H28.3287C27.0874 24.4595 26.0811 23.4532 26.0811 22.2119V17.7881ZM27.7027 18.5924C27.7027 17.8025 28.3431 17.1621 29.133 17.1621H31.9482C32.7381 17.1621 33.3784 17.8025 33.3784 18.5924V21.4076C33.3784 22.1975 32.7381 22.8378 31.9482 22.8378H29.133C28.3431 22.8378 27.7027 22.1975 27.7027 21.4076V18.5924Z" fill="white"/>
<path fill-rule="evenodd" clip-rule="evenodd" d="M5 28.3287C5 27.0874 6.00627 26.0811 7.24757 26.0811H11.6714C12.9126 26.0811 13.9189 27.0874 13.9189 28.3287V32.7525C13.9189 33.9937 12.9126 35 11.6714 35H7.24757C6.00627 35 5 33.9937 5 32.7525V28.3287ZM6.62166 29.133C6.62166 28.343 7.26202 27.7027 8.05193 27.7027H10.8671C11.657 27.7027 12.2973 28.343 12.2973 29.133V31.9481C12.2973 32.738 11.657 33.3784 10.8671 33.3784H8.05193C7.26202 33.3784 6.62166 32.738 6.62166 31.9481V29.133Z" fill="white"/>
<path fill-rule="evenodd" clip-rule="evenodd" d="M15.5406 28.3287C15.5406 27.0874 16.5468 26.0811 17.7881 26.0811H22.2119C23.4532 26.0811 24.4595 27.0874 24.4595 28.3287V32.7525C24.4595 33.9937 23.4532 35 22.2119 35H17.7881C16.5468 35 15.5406 33.9937 15.5406 32.7525V28.3287ZM17.1622 29.133C17.1622 28.343 17.8025 27.7027 18.5925 27.7027H21.4076C22.1975 27.7027 22.8379 28.343 22.8379 29.133V31.9481C22.8379 32.738 22.1975 33.3784 21.4076 33.3784H18.5925C17.8025 33.3784 17.1622 32.738 17.1622 31.9481V29.133Z" fill="white"/>
<path fill-rule="evenodd" clip-rule="evenodd" d="M26.0811 28.3287C26.0811 27.0874 27.0874 26.0811 28.3287 26.0811H32.7525C33.9938 26.0811 35 27.0874 35 28.3287V32.7525C35 33.9937 33.9938 35 32.7525 35H28.3287C27.0874 35 26.0811 33.9937 26.0811 32.7525V28.3287ZM27.7027 29.133C27.7027 28.343 28.3431 27.7027 29.133 27.7027H31.9482C32.7381 27.7027 33.3784 28.343 33.3784 29.133V31.9481C33.3784 32.738 32.7381 33.3784 31.9482 33.3784H29.133C28.3431 33.3784 27.7027 32.738 27.7027 31.9481V29.133Z" fill="white"/>
</svg>
