<svg width="40" height="40" viewBox="0 0 40 40" fill="none" xmlns="http://www.w3.org/2000/svg">
<path d="M25.8334 23.3333H24.5167L24.05 22.8833C25.0916 21.6733 25.8528 20.248 26.2793 18.7094C26.7057 17.1708 26.7868 15.5569 26.5167 13.9833C25.7334 9.35 21.8667 5.65 17.2 5.08334C15.5594 4.87578 13.893 5.04629 12.3284 5.58182C10.7638 6.11735 9.34243 7.0037 8.17307 8.17306C7.00372 9.34241 6.11736 10.7638 5.58183 12.3284C5.04631 13.893 4.8758 15.5594 5.08335 17.2C5.65002 21.8667 9.35002 25.7333 13.9834 26.5167C15.5569 26.7868 17.1708 26.7057 18.7094 26.2793C20.248 25.8528 21.6733 25.0916 22.8834 24.05L23.3334 24.5167V25.8333L30.4167 32.9167C31.1 33.6 32.2167 33.6 32.9 32.9167C33.5834 32.2333 33.5834 31.1167 32.9 30.4333L25.8334 23.3333ZM15.8334 23.3333C11.6834 23.3333 8.33335 19.9833 8.33335 15.8333C8.33335 11.6833 11.6834 8.33334 15.8334 8.33334C19.9834 8.33334 23.3334 11.6833 23.3334 15.8333C23.3334 19.9833 19.9834 23.3333 15.8334 23.3333Z" fill="white"/>
</svg>
