<svg width="40" height="40" viewBox="0 0 40 40" fill="none" xmlns="http://www.w3.org/2000/svg">
<path d="M30.625 36.7917L32.5417 34.875L25.125 27.4583L23.2083 29.375C22.1806 30.4028 21.6667 31.6389 21.6667 33.0833C21.6667 34.5278 22.1806 35.7639 23.2083 36.7917C24.2361 37.8195 25.4722 38.3333 26.9167 38.3333C28.3611 38.3333 29.5972 37.8195 30.625 36.7917ZM34.875 32.5417L36.7917 30.625C37.8194 29.5972 38.3333 28.3611 38.3333 26.9167C38.3333 25.4722 37.8194 24.2361 36.7917 23.2083C35.7639 22.1806 34.5278 21.6667 33.0833 21.6667C31.6389 21.6667 30.4028 22.1806 29.375 23.2083L27.4583 25.125L34.875 32.5417ZM11.6667 15H28.3333V11.6667H11.6667V15ZM20 7.08333C20.3611 7.08333 20.66 6.965 20.8967 6.72834C21.1333 6.49167 21.2511 6.19334 21.25 5.83333C21.2489 5.47333 21.1306 5.175 20.895 4.93833C20.6594 4.70167 20.3611 4.58333 20 4.58333C19.6389 4.58333 19.3406 4.70167 19.105 4.93833C18.8694 5.175 18.7511 5.47333 18.75 5.83333C18.7489 6.19334 18.8672 6.49222 19.105 6.73C19.3428 6.96778 19.6411 7.08556 20 7.08333ZM18.5417 35H8.33333C7.41667 35 6.63222 34.6739 5.98 34.0217C5.32778 33.3694 5.00111 32.5844 5 31.6667V8.33333C5 7.41667 5.32667 6.63222 5.98 5.98C6.63333 5.32778 7.41778 5.00111 8.33333 5H15.3333C15.6944 4 16.2989 3.19445 17.1467 2.58333C17.9944 1.97222 18.9456 1.66667 20 1.66667C21.0544 1.66667 22.0061 1.97222 22.855 2.58333C23.7039 3.19445 24.3078 4 24.6667 5H31.6667C32.5833 5 33.3683 5.32667 34.0217 5.98C34.675 6.63334 35.0011 7.41778 35 8.33333V18.5417C33.8333 18.2639 32.6739 18.2428 31.5217 18.4783C30.3694 18.7139 29.3067 19.1522 28.3333 19.7933V18.3333H11.6667V21.6667H26.2083L22.875 25H11.6667V28.3333H19.7917C19.1528 29.3056 18.715 30.3683 18.4783 31.5217C18.2417 32.675 18.2633 33.8344 18.5433 35" fill="white"/>
</svg>
