<svg width="40" height="40" viewBox="0 0 40 40" fill="none" xmlns="http://www.w3.org/2000/svg">
<path d="M25.4125 26.85L28.2125 24.05C28.5896 23.6776 29.0668 23.4226 29.586 23.3161C30.1052 23.2096 30.6442 23.2561 31.1375 23.45L34.55 24.8125C35.0485 25.0148 35.476 25.3602 35.7785 25.8051C36.081 26.25 36.2451 26.7745 36.25 27.3125V33.5625C36.2471 33.9285 36.1702 34.2901 36.0238 34.6255C35.8775 34.961 35.6648 35.2634 35.3985 35.5145C35.1323 35.7655 34.8179 35.9601 34.4745 36.0866C34.131 36.213 33.7655 36.2686 33.4 36.25C9.48751 34.7625 4.66251 14.5125 3.75001 6.7625C3.70766 6.38192 3.74636 5.99668 3.86358 5.63213C3.98079 5.26759 4.17387 4.93199 4.4301 4.64742C4.68633 4.36285 4.99991 4.13575 5.35021 3.98108C5.70051 3.8264 6.07959 3.74765 6.46251 3.75H12.5C13.0388 3.75159 13.5647 3.91433 14.0103 4.21728C14.4558 4.52024 14.8005 4.94955 15 5.45L16.3625 8.8625C16.5628 9.35383 16.6139 9.8933 16.5095 10.4135C16.405 10.9337 16.1495 11.4116 15.775 11.7875L12.975 14.5875C12.975 14.5875 14.5875 25.5 25.4125 26.85Z" fill="white"/>
</svg>
