<svg width="40" height="40" viewBox="0 0 40 40" fill="none" xmlns="http://www.w3.org/2000/svg">
<path d="M14.2667 19.8333C14.7348 20.3021 14.9978 20.9375 14.9978 21.6C14.9978 22.2625 14.7348 22.8979 14.2667 23.3667L12.6433 24.9933H26.6667C27.3297 24.9933 27.9656 25.2567 28.4344 25.7256C28.9033 26.1944 29.1667 26.8303 29.1667 27.4933C29.1667 28.1564 28.9033 28.7923 28.4344 29.2611C27.9656 29.7299 27.3297 29.9933 26.6667 29.9933H12.6433L14.2683 31.6167C14.7373 32.0857 15.0008 32.7217 15.0008 33.385C15.0008 34.0483 14.7373 34.6843 14.2683 35.1533C13.7993 35.6223 13.1633 35.8858 12.5 35.8858C11.8367 35.8858 11.2007 35.6223 10.7317 35.1533L4.84 29.26C4.37132 28.7912 4.10803 28.1554 4.10803 27.4925C4.10803 26.8296 4.37132 26.1938 4.84 25.725L10.7317 19.8317C10.9638 19.5994 11.2395 19.4151 11.5429 19.2893C11.8463 19.1636 12.1716 19.0989 12.5 19.0989C12.8284 19.0989 13.1537 19.1636 13.4571 19.2893C13.7605 19.4151 14.0362 19.5994 14.2683 19.8317L14.2667 19.8333ZM25.7333 4.83333C26.1706 4.39566 26.7547 4.13568 27.3725 4.10366C27.9904 4.07165 28.5982 4.26987 29.0783 4.66L29.2683 4.83167L35.16 10.725C35.5974 11.1625 35.8571 11.7466 35.8888 12.3645C35.9205 12.9824 35.722 13.59 35.3317 14.07L35.16 14.26L29.2683 20.1533C28.8163 20.6121 28.2046 20.8787 27.5608 20.8975C26.917 20.9164 26.2908 20.6861 25.8127 20.2546C25.3345 19.8231 25.0414 19.2237 24.9943 18.5813C24.9472 17.939 25.1499 17.3033 25.56 16.8067L25.7317 16.6167L27.3567 14.9933H13.3333C12.6881 14.9978 12.0662 14.7526 11.5975 14.3091C11.1289 13.8655 10.8499 13.258 10.8189 12.6135C10.7879 11.969 11.0073 11.3375 11.4312 10.851C11.8551 10.3646 12.4507 10.0608 13.0933 10.0033L13.3333 9.99333H27.3567L25.7317 8.36833C25.4994 8.13617 25.3151 7.8605 25.1893 7.55708C25.0636 7.25366 24.9989 6.92844 24.9989 6.6C24.9989 6.27156 25.0636 5.94634 25.1893 5.64292C25.3151 5.3395 25.4994 5.06383 25.7317 4.83167L25.7333 4.83333Z" fill="white"/>
</svg>
