<svg width="40" height="40" viewBox="0 0 40 40" fill="none" xmlns="http://www.w3.org/2000/svg">
<g clip-path="url(#clip0_15_451)">
<path d="M20.0007 9.76457L4.825 23.1472C4.7125 23.2486 4.56875 23.2958 4.44514 23.3798V36.2229C4.44514 36.5176 4.5622 36.8002 4.77057 37.0086C4.97895 37.217 5.26156 37.334 5.55625 37.334H34.4451C34.7398 37.334 35.0224 37.217 35.2308 37.0086C35.4392 36.8002 35.5562 36.5176 35.5562 36.2229V23.3826C35.4382 23.3021 35.2979 23.2562 35.191 23.1604L20.0007 9.76457ZM26.6674 27.8896C26.6674 28.0369 26.6088 28.1782 26.5046 28.2824C26.4005 28.3866 26.2591 28.4451 26.1118 28.4451H22.2229V32.334C22.2229 32.4814 22.1644 32.6227 22.0602 32.7269C21.956 32.831 21.8147 32.8896 21.6674 32.8896H18.334C18.1867 32.8896 18.0454 32.831 17.9412 32.7269C17.837 32.6227 17.7785 32.4814 17.7785 32.334V28.4451H13.8896C13.7422 28.4451 13.6009 28.3866 13.4967 28.2824C13.3926 28.1782 13.334 28.0369 13.334 27.8896V24.5562C13.334 24.4089 13.3926 24.2676 13.4967 24.1634C13.6009 24.0592 13.7422 24.0007 13.8896 24.0007H17.7785V20.1118C17.7785 19.9644 17.837 19.8231 17.9412 19.719C18.0454 19.6148 18.1867 19.5562 18.334 19.5562H21.6674C21.8147 19.5562 21.956 19.6148 22.0602 19.719C22.1644 19.8231 22.2229 19.9644 22.2229 20.1118V24.0007H26.1118C26.2591 24.0007 26.4005 24.0592 26.5046 24.1634C26.6088 24.2676 26.6674 24.4089 26.6674 24.5562V27.8896ZM39.6319 18.1868L21.8583 2.49234C21.3496 2.03241 20.6882 1.77776 20.0024 1.77776C19.3166 1.77776 18.6552 2.03241 18.1465 2.49234L0.368746 18.1868C0.26015 18.2843 0.17183 18.4023 0.108832 18.5339C0.0458338 18.6656 0.00939233 18.8084 0.00158915 18.9541C-0.00621403 19.0999 0.014774 19.2457 0.0633542 19.3833C0.111934 19.521 0.187155 19.6477 0.284718 19.7562L1.77152 21.4104C1.86904 21.519 1.987 21.6073 2.11865 21.6703C2.25031 21.7333 2.39309 21.7698 2.53884 21.7776C2.68458 21.7854 2.83044 21.7644 2.96807 21.7158C3.1057 21.6672 3.23241 21.592 3.34097 21.4944L19.266 7.44721C19.469 7.26812 19.7303 7.16931 20.001 7.16931C20.2717 7.16931 20.5331 7.26812 20.7361 7.44721L36.6611 21.4937C36.7697 21.5913 36.8964 21.6665 37.034 21.7151C37.1716 21.7637 37.3175 21.7847 37.4632 21.7769C37.609 21.7691 37.7518 21.7326 37.8834 21.6696C38.0151 21.6066 38.133 21.5183 38.2305 21.4097L39.7167 19.7555C39.9134 19.5363 40.015 19.2478 39.9991 18.9536C39.9832 18.6594 39.8512 18.3836 39.6319 18.1868Z" fill="white"/>
</g>
<defs>
<clipPath id="clip0_15_451">
<rect width="40" height="40" fill="white"/>
</clipPath>
</defs>
</svg>
