<svg width="40" height="40" viewBox="0 0 40 40" fill="none" xmlns="http://www.w3.org/2000/svg">
<path fill-rule="evenodd" clip-rule="evenodd" d="M28.8215 2.15482C29.4724 1.50395 30.5276 1.50395 31.1785 2.15482L34.5116 5.48791L37.8452 8.82149C38.496 9.47236 38.496 10.5276 37.8452 11.1785C37.1943 11.8294 36.139 11.8294 35.4881 11.1785L33.3333 9.02369L30.6903 11.6667L32.8447 13.821L34.5118 15.4882C35.1627 16.139 35.1627 17.1943 34.5118 17.8452C33.861 18.4961 32.8057 18.4961 32.1548 17.8452L31.6667 17.357L15.6785 33.3452C13.6476 35.3761 10.5648 35.6734 8.36399 33.993L4.51183 37.8452C3.86096 38.4961 2.80569 38.4961 2.15481 37.8452C1.50394 37.1943 1.50394 36.139 2.15481 35.4882L6.02916 31.6138C4.38951 29.3596 4.52522 26.2671 6.68322 24.2931L22.643 8.33333L22.1548 7.84518C21.5039 7.19431 21.5039 6.13903 22.1548 5.48816C22.8057 4.83728 23.861 4.83728 24.5118 5.48816L28.3333 9.30965L30.9763 6.66667L28.8215 4.51185C28.1706 3.86097 28.1706 2.8057 28.8215 2.15482ZM25 10.6904L17.357 18.3333L21.6667 22.643L29.3096 15L25 10.6904ZM19.3096 25L15 20.6904L9.01184 26.6785C8.99118 26.6992 8.96998 26.7193 8.94826 26.7388C8.05366 27.544 7.95961 28.9359 9.01184 29.9882L9.51029 30.4866C9.5108 30.4871 9.51132 30.4876 9.51184 30.4882C9.51235 30.4887 9.51286 30.4892 9.51338 30.4897L10.0118 30.9882C10.0325 31.0088 10.0526 31.03 10.0721 31.0517C10.8773 31.9463 12.2693 32.0404 13.3215 30.9882L19.3096 25Z" fill="white"/>
</svg>
