<svg width="40" height="40" viewBox="0 0 40 40" fill="none" xmlns="http://www.w3.org/2000/svg">
<path fill-rule="evenodd" clip-rule="evenodd" d="M3.17459 7.17461C3.17459 4.96547 4.96545 3.17461 7.17459 3.17461H15.0476C17.2567 3.17461 19.0476 4.96547 19.0476 7.17461V15.0476C19.0476 17.2568 17.2567 19.0476 15.0476 19.0476H7.17459C4.96545 19.0476 3.17459 17.2568 3.17459 15.0476V7.17461ZM3.17459 24.9524C3.17459 22.7432 4.96545 20.9524 7.17459 20.9524H15.0476C17.2567 20.9524 19.0476 22.7432 19.0476 24.9524V32.8254C19.0476 35.0345 17.2567 36.8254 15.0476 36.8254H7.17459C4.96545 36.8254 3.17459 35.0345 3.17459 32.8254V24.9524ZM24.9524 3.17461C22.7432 3.17461 20.9524 4.96547 20.9524 7.17461V15.0476C20.9524 17.2568 22.7432 19.0476 24.9524 19.0476H32.8254C35.0345 19.0476 36.8254 17.2568 36.8254 15.0476V7.17461C36.8254 4.96547 35.0345 3.17461 32.8254 3.17461H24.9524ZM20.9524 24.9524C20.9524 22.7432 22.7432 20.9524 24.9524 20.9524H32.8254C35.0345 20.9524 36.8254 22.7432 36.8254 24.9524V32.8254C36.8254 35.0345 35.0345 36.8254 32.8254 36.8254H24.9524C22.7432 36.8254 20.9524 35.0345 20.9524 32.8254V24.9524Z" fill="white"/>
</svg>
