<svg width="40" height="40" viewBox="0 0 40 40" fill="none" xmlns="http://www.w3.org/2000/svg">
<path fill-rule="evenodd" clip-rule="evenodd" d="M2 6.764C2 5.78977 2.78977 5 3.764 5H7.236C8.21023 5 9 5.78977 9 6.764V10.236C9 11.2102 8.21023 12 7.236 12H3.764C2.78977 12 2 11.2102 2 10.236V6.764ZM2 18.016C2 16.9026 2.78977 16 3.764 16H7.236C8.21023 16 9 16.9026 9 18.016V21.984C9 23.0974 8.21023 24 7.236 24H3.764C2.78977 24 2 23.0974 2 21.984V18.016ZM3.764 28C2.78977 28 2 28.7898 2 29.764V33.236C2 34.2102 2.78977 35 3.764 35H7.236C8.21023 35 9 34.2102 9 33.236V29.764C9 28.7898 8.21023 28 7.236 28H3.764ZM12 8.48255C12 7.66378 12.8783 7.00003 13.9618 7.00003L36.0382 7C37.1217 7 38 7.66375 38 8.48252V8.51746C38 9.33623 37.1217 9.99998 36.0382 9.99998L13.9618 10C12.8783 10 12 9.33625 12 8.51749V8.48255ZM13.9618 19C12.8783 19 12 19.6638 12 20.4825V20.5175C12 21.3363 12.8783 22 13.9618 22L36.0382 22C37.1217 22 38 21.3362 38 20.5175V20.4825C38 19.6638 37.1217 19 36.0382 19L13.9618 19ZM12 31.4825C12 30.6638 12.8783 30 13.9618 30L36.0382 30C37.1217 30 38 30.6638 38 31.4825V31.5175C38 32.3362 37.1217 33 36.0382 33L13.9618 33C12.8783 33 12 32.3363 12 31.5175V31.4825Z" fill="white"/>
</svg>
